<?xml version="1.0" encoding="UTF-8"?>
<svg width="17px" height="15px" viewBox="0 0 17 15" version="1.1" xmlns="http://www.w3.org/2000/svg" xmlns:xlink="http://www.w3.org/1999/xlink">
    <!-- Generator: Sketch 52.5 (67469) - http://www.bohemiancoding.com/sketch -->
    <title>attention_icon</title>
    <desc>Created with Sketch.</desc>
    <g id="Caretaker" stroke="none" stroke-width="1" fill="none" fill-rule="evenodd">
        <g id="Dashboard-alert-2" transform="translate(-1078.000000, -263.000000)" fill="#D86018">
            <g id="Group" transform="translate(0.000000, 243.000000)">
                <g id="attention_icon" transform="translate(1078.000000, 20.000000)">
                    <circle id="Oval" cx="8.5" cy="11.5" r="1"></circle>
                    <path d="M8.5,9 C8.776,9 9,8.80521739 9,8.56521739 L9,4.43478261 C9,4.19478261 8.776,4 8.5,4 C8.224,4 8,4.19478261 8,4.43478261 L8,8.56521739 C8,8.80521739 8.224,9 8.5,9 Z" id="Path"></path>
                    <path d="M10.0773921,1.32408603 L10.0577004,1.2926927 C9.65694174,0.657256089 9.24276677,0 8.4998918,0 C7.72563995,0 7.32055346,0.666607294 6.92888329,1.31161776 C6.92693576,1.31473483 6.91481778,1.33477312 6.91287025,1.33811284 L0.0601570754,13.2856125 C0.0207736663,13.354188 0,13.3900343 0,13.4695195 C0,14.3369551 0.678390041,15 1.51214979,15 L15.4878502,15 C16.3218264,15 17,14.3367324 17,13.4695195 C17,13.3900343 16.9792263,13.3328138 16.9400593,13.264461 L10.0773921,1.32408603 Z M15.4878502,14.1094091 L1.51214979,14.1094091 C1.19600056,14.1094091 0.924211759,13.8976711 0.87379234,13.5763904 L7.66288616,1.76247941 C7.99915989,1.20875451 8.21944731,0.880126464 8.4998918,0.880126464 C8.77276257,0.880126464 9.03156783,1.29647771 9.33148763,1.77205326 L16.1259913,13.5739413 C16.0757882,13.8949993 15.8039994,14.1094091 15.4878502,14.1094091 Z" id="Shape" fill-rule="nonzero"></path>
                </g>
            </g>
        </g>
    </g>
</svg>