<?xml version="1.0" encoding="UTF-8"?>
<svg width="15px" height="15px" viewBox="0 0 15 15" version="1.1" xmlns="http://www.w3.org/2000/svg" xmlns:xlink="http://www.w3.org/1999/xlink">
    <!-- Generator: Sketch 52.5 (67469) - http://www.bohemiancoding.com/sketch -->
    <title>complete_icon</title>
    <desc>Created with Sketch.</desc>
    <g id="Caretaker" stroke="none" stroke-width="1" fill="none" fill-rule="evenodd">
        <g id="Dashboard-alert-2" transform="translate(-862.000000, -263.000000)" fill="#63B800">
            <g id="Group" transform="translate(0.000000, 243.000000)">
                <g id="complete_icon" transform="translate(862.000000, 20.000000)">
                    <path d="M12.803291,2.19667969 C11.3867285,0.780146484 9.50332031,0 7.5,0 C5.49665039,0 3.61321289,0.780146484 2.19667969,2.19667969 C0.780117188,3.61324219 0,5.49667969 0,7.5 C0,9.50332031 0.780117188,11.3867285 2.19667969,12.803291 C3.61324219,14.2198535 5.49665039,15 7.5,15 C9.50332031,15 11.3867285,14.2198535 12.803291,12.803291 C14.2198535,11.3867285 15,9.50332031 15,7.5 C15,5.49667969 14.2198535,3.61327148 12.803291,2.19667969 Z M7.5,14.1210938 C3.84911133,14.1210938 0.87890625,11.1508887 0.87890625,7.5 C0.87890625,3.84911133 3.84911133,0.87890625 7.5,0.87890625 C11.1508887,0.87890625 14.1210938,3.84911133 14.1210938,7.5 C14.1210938,11.1508887 11.1508887,14.1210938 7.5,14.1210938 Z" id="Shape" fill-rule="nonzero"></path>
                    <path d="M10.8786316,5.12688595 C10.7168348,4.95769987 10.454457,4.95769987 10.2926602,5.12691485 L6.63354289,8.95379668 L4.70736746,6.93930926 C4.5455706,6.77009428 4.28319284,6.77009428 4.12136836,6.93930926 C3.95954388,7.10852424 3.95954388,7.38293159 4.12136836,7.55217546 L6.34052952,9.87308154 C6.42144176,9.95770348 6.52749232,10 6.63351526,10 C6.7395382,10 6.84561638,9.95767459 6.926501,9.87308154 L10.8786316,5.73975216 C11.0404561,5.57053718 11.0404561,5.29612983 10.8786316,5.12688595 Z" id="Path"></path>
                </g>
            </g>
        </g>
    </g>
</svg>