<?xml version="1.0" encoding="UTF-8"?>
<svg width="15px" height="15px" viewBox="0 0 15 15" version="1.1" xmlns="http://www.w3.org/2000/svg" xmlns:xlink="http://www.w3.org/1999/xlink">
    <!-- Generator: Sketch 52.5 (67469) - http://www.bohemiancoding.com/sketch -->
    <title>uderreview_icon</title>
    <desc>Created with Sketch.</desc>
    <g id="Caretaker" stroke="none" stroke-width="1" fill="none" fill-rule="evenodd">
        <g id="Dashboard-alert-2" transform="translate(-973.000000, -263.000000)" fill="#F5A623" fill-rule="nonzero">
            <g id="Group" transform="translate(0.000000, 243.000000)">
                <g id="uderreview_icon" transform="translate(973.000000, 20.000000)">
                    <path d="M7.49727491,0 C9.56761863,0 11.442119,0.841525424 12.8028486,2.19624697 C14.158128,3.55677966 15,5.43050847 15,7.5 C15,9.56949153 14.158128,11.4432203 12.8028486,12.803753 C11.4417557,14.1584746 9.56761863,15 7.49727491,15 C5.42693118,15 3.55279413,14.1584746 2.19751472,12.803753 C0.836421772,11.4432203 0,9.56985472 0,7.5 C0,5.43050847 0.836058426,3.55677966 2.19715137,2.19624697 C3.55279413,0.841525424 5.42693118,0 7.49727491,0 Z M11.3211249,7.09067797 C11.5460359,7.09067797 11.724802,7.2751816 11.724802,7.5 C11.724802,7.7248184 11.5460359,7.90932203 11.3211249,7.90932203 L7.50890197,7.90932203 L7.49727491,7.90932203 C7.34721314,7.90932203 7.21459196,7.82288136 7.14555628,7.70193705 L7.13974275,7.69612591 L7.13392922,7.68450363 L7.13392922,7.67869249 L7.12811569,7.66707022 L7.12230216,7.65544794 L7.12230216,7.6496368 L7.11648863,7.63801453 L7.1106751,7.63220339 L7.1106751,7.62058111 L7.10486157,7.60895884 L7.10486157,7.6031477 L7.09904803,7.59152542 L7.09904803,7.57990315 L7.09904803,7.57409201 L7.09904803,7.56828087 L7.0932345,7.56246973 L7.0932345,7.55084746 L7.0932345,7.53922518 L7.0932345,7.52905569 L7.0932345,7.52324455 L7.0932345,7.51162228 L7.0932345,7.5 L7.0932345,2.61719128 C7.0932345,2.39237288 7.27200058,2.21368039 7.49691156,2.21368039 C7.72182254,2.21368039 7.90640215,2.39237288 7.90640215,2.61719128 L7.90640215,7.09067797 L11.3211249,7.09067797 Z M12.226219,2.77300242 C11.0151878,1.56246973 9.34270765,0.818644068 7.49727491,0.818644068 C5.65184216,0.818644068 3.97936196,1.56210654 2.76833079,2.77300242 C1.56311315,3.98353511 0.813167648,5.65532688 0.813167648,7.5 C0.813167648,9.34467312 1.5627498,11.0164649 2.76833079,12.2273608 C3.97936196,13.4378935 5.65184216,14.1817191 7.49727491,14.1817191 C9.34270765,14.1817191 11.0151878,13.4378935 12.226219,12.2273608 C13.4372502,11.0168281 14.1871957,9.34503632 14.1871957,7.5 C14.1871957,5.65532688 13.4376135,3.98353511 12.226219,2.77300242 Z" id="Shape"></path>
                </g>
            </g>
        </g>
    </g>
</svg>